<?xml version="1.0" encoding="utf-8"?>
<!-- Generator: Adobe Illustrator 27.5.0, SVG Export Plug-In . SVG Version: 6.00 Build 0)  -->
<svg version="1.1" id="Layer_1" xmlns="http://www.w3.org/2000/svg" xmlns:xlink="http://www.w3.org/1999/xlink" x="0px" y="0px"
	 viewBox="0 0 1320 990" style="enable-background:new 0 0 1320 990;" xml:space="preserve">
<rect style="fill:#FFFFFF;" width="1320" height="990"/>
<g>
	<g>
		<path style="fill:#D4F7FF;" d="M1120.587,673.496c6.761,12.716,80.829,172.246,82.763,199.131
			c3.828,53.326-45.97,42.346-101.151,40.837H173.41c-5.042-2.689-9.16-8.661-12.66-13.454
			c-10.691-14.645-19.494-31.564-27.281-48.664c-7.793-17.095-14.94-35.148-19.5-53.978c-1.14-4.708-6.369-23.203-0.289-27.672
			c20.345-14.968,41.234-28.705,62.554-41.376c-6.812-15.433-12.937-31.614-17.004-48.414c-1.214-5.002-6.307-22.925-0.29-27.673
			c6.858-5.417,13.817-10.612,20.866-15.62c-1.503-2.365-2.932-4.719-4.293-6.959c-10.408-17.123-19.296-35.783-26.834-55.01
			c-0.777-1.985-1.554-3.993-2.32-6.024c-4.997-13.159-9.659-27.264-11.338-41.523c-1.429-5.507-0.697-10.34,2.189-14.491
			c26.272-23.362,57.779-36.997,88.905-47.428c-5.745-13.595-10.844-27.741-14.389-42.357c-0.924-3.823-6.528-24.06-0.289-27.678
			c23.214-13.465,47.314-24.525,71.901-33.582c-4.708-11.713-8.853-23.816-11.871-36.254c-0.119-0.51-6.693-27.4-0.289-27.678
			c26.623-1.157,53.173-3.556,79.677-6.642c-1.826-7.3-2.535-14.9-1.282-22.284c2.24-13.215,12.399-22.948,23.402-23.175
			c4.276-0.085,8.74-1.662,12.898-2.74c4.935-1.276,9.858-2.649,14.752-4.158c10.374-3.607,20.679-7.538,31.065-11.088
			c17.786-6.086,35.613-11.985,53.525-17.475c29.856-9.148,59.945-17.004,90.243-23.566c29.845-6.466,59.866-11.587,89.904-16.454
			c60.279-9.767,120.791-18.615,180.119-35.335c9.489-0.772,18.689,0.941,27.599,5.127c5.054,2.83,10.101,5.655,15.155,8.485
			c15.28,10.425,29.13,25.211,38.931,43.032c6.653,12.104,12.728,27.939,10.981,43.1c32.38-2.842,64.778-3.375,96.284,5.729
			c5.598,3.653,10.391,8.542,14.372,14.656c2.927,4.424,5.848,8.848,8.775,13.272c7.821,12.869,14.786,26.606,20.963,40.803
			c19.698,5.099,39.232,13.108,54.733,29.499c19.12,20.231,32.692,50.314,43.463,77.788c5.808,14.832,11.718,31.087,13.658,47.547
			c1.429,5.507,0.697,10.34-2.19,14.491c-15.966,2.218-31.949,4.18-47.944,5.961c4.696,9.591,9.001,19.477,12.938,29.516
			c2.53,6.46,5.082,13.187,7.311,20.084c2.501,3.783,5.003,7.561,7.499,11.344c4.589,7.549,8.888,15.41,12.897,23.476
			c5.088,10.221,9.722,20.793,13.936,31.535c5.808,14.826,11.718,31.087,13.658,47.547c1.429,5.507,0.697,10.334-2.19,14.491
			C1178.394,672.911,1149.558,674.029,1120.587,673.496z"/>
		<path style="fill:#9CE5E0;" d="M1120.587,673.496c6.761,12.716,80.829,172.246,82.763,199.131
			c3.828,53.326-45.97,42.346-101.151,40.837H173.41c-5.042-2.689-9.16-8.661-12.66-13.454
			c-10.691-14.645-19.494-31.564-27.281-48.664c-7.793-17.095-14.94-35.148-19.5-53.978c-1.14-4.708-6.369-23.203-0.289-27.672
			c20.345-14.968,41.234-28.705,62.554-41.376c-6.812-15.433-12.937-31.614-17.004-48.414c-1.214-5.002-6.307-22.925-0.29-27.673
			c6.858-5.417,13.817-10.612,20.866-15.62c-1.503-2.365-2.932-4.719-4.293-6.959c-10.408-17.123-19.296-35.783-26.834-55.01
			c-0.777-1.985-1.554-3.993-2.32-6.024h1034.546c5.088,10.221,9.722,20.793,13.936,31.535
			c5.808,14.826,11.718,31.087,13.658,47.547c1.429,5.507,0.697,10.334-2.19,14.491
			C1178.394,672.911,1149.558,674.029,1120.587,673.496z"/>
	</g>
	<ellipse style="fill:#8D9FA0;" cx="660" cy="904.571" rx="644.315" ry="30.099"/>
	<g>
		<g>
			<g>
				<g>
					<g>
						<path style="fill:#D3DEE2;" d="M437.494,320.9H123.097c-6.135,0-9.588,5.92-7.713,13.222l48.725,189.761
							c1.875,7.302,8.297,13.222,14.345,13.222h309.905c6.047,0,9.561-5.92,7.849-13.222l-44.504-189.761
							C449.99,326.82,443.629,320.9,437.494,320.9z"/>
					</g>
					<g>
						<g>
							<path style="fill:#B0BEC1;" d="M512.647,523.883c1.705,7.302-1.816,13.222-7.863,13.222H194.879
								c-6.047,0-12.463-5.92-14.33-13.222l-48.515-189.761c-1.867-7.302,1.592-13.222,7.727-13.222h314.397
								c6.135,0,12.49,5.92,14.195,13.222L512.647,523.883z"/>
						</g>
						<g>
							<path style="fill:#748589;" d="M492.139,513.55c1.526,6.507-1.608,11.782-7.001,11.782H208.767
								c-5.393,0-11.107-5.275-12.763-11.782l-43.027-169.094c-1.656-6.507,1.43-11.782,6.892-11.782h279.938
								c5.462,0,11.129,5.275,12.655,11.782L492.139,513.55z"/>
						</g>
					</g>
				</g>
				<g>
					<path style="fill:#232728;" d="M404.615,448.613L392.62,385.37c-1.205-6.349-7.418-11.497-13.878-11.497H249.476
						c-6.461,0-10.851,5.147-9.808,11.497l10.397,63.243c1.044,6.349,7.201,11.497,13.754,11.497h131.113
						C401.485,460.11,405.82,454.962,404.615,448.613z"/>
					<g>
						<g>
							<path style="fill:#545E60;" d="M407.566,446.642c1.153,6.077-2.997,11.004-9.269,11.004H272.803
								c-6.272,0-12.165-4.927-13.165-11.004l-9.951-60.532c-0.999-6.078,3.203-11.005,9.387-11.005h123.727
								c6.184,0,12.13,4.927,13.283,11.005L407.566,446.642z"/>
							<polygon style="fill:#232728;" points="390.66,406.471 262.322,406.471 258.76,385.01 386.624,385.01 							"/>
							<rect x="286.225" y="391.659" style="fill:#82F9F6;" width="15.881" height="5.672"/>
							<rect x="331.599" y="391.659" style="fill:#82F9F6;" width="7.94" height="5.672"/>
							<rect x="356.555" y="391.659" style="fill:#82F9F6;" width="24.956" height="5.672"/>
						</g>
						<g>
							<g>
								<path style="fill:#FFC20F;" d="M285.938,423.492c0.316,1.865-0.98,3.378-2.895,3.378h-8.668
									c-1.915,0-3.72-1.512-4.031-3.378l-1.409-8.445c-0.311-1.866,0.985-3.378,2.895-3.378h8.645c1.91,0,3.715,1.512,4.031,3.378
									L285.938,423.492z"/>
								<path style="fill:#639ECE;" d="M314.161,423.492c0.325,1.865-0.964,3.378-2.879,3.378h-8.668
									c-1.915,0-3.727-1.512-4.048-3.378l-1.45-8.445c-0.321-1.866,0.968-3.378,2.879-3.378h8.645c1.91,0,3.722,1.512,4.047,3.378
									L314.161,423.492z"/>
								<path style="fill:#639ECE;" d="M342.385,423.492c0.334,1.865-0.947,3.378-2.862,3.378h-8.668
									c-1.915,0-3.735-1.512-4.064-3.378l-1.491-8.445c-0.33-1.866,0.952-3.378,2.862-3.378h8.646c1.91,0,3.729,1.512,4.063,3.378
									L342.385,423.492z"/>
							</g>
							<g>
								<path style="fill:#639ECE;" d="M289.763,446.051c0.316,1.866-0.986,3.377-2.908,3.377h-8.701
									c-1.923,0-3.734-1.512-4.045-3.377l-1.409-8.445c-0.312-1.865,0.99-3.377,2.907-3.377h8.679
									c1.918,0,3.728,1.512,4.044,3.377L289.763,446.051z"/>
								<path style="fill:#639ECE;" d="M318.095,446.051c0.326,1.866-0.969,3.377-2.891,3.377h-8.702
									c-1.922,0-3.74-1.512-4.06-3.377l-1.45-8.445c-0.321-1.865,0.974-3.377,2.891-3.377h8.679c1.917,0,3.735,1.512,4.06,3.377
									L318.095,446.051z"/>
								<path style="fill:#639ECE;" d="M346.429,446.051c0.335,1.866-0.953,3.377-2.875,3.377h-8.702
									c-1.923,0-3.748-1.512-4.077-3.377l-1.491-8.445c-0.33-1.865,0.958-3.377,2.875-3.377h8.679
									c1.918,0,3.743,1.512,4.077,3.377L346.429,446.051z"/>
							</g>
						</g>
						<path style="fill:#639ECE;" d="M396.63,435.226c1.143,6.078-3.003,11.005-9.263,11.005h-23.8
							c-6.259,0-12.221-4.927-13.317-11.005l-1.983-11.004c-1.096-6.077,3.062-11.004,9.286-11.004h23.665
							c6.225,0,12.197,4.927,13.34,11.004L396.63,435.226z"/>
					</g>
				</g>
			</g>
			<g>
				<path style="fill:#545E60;" d="M209.11,314.181h-76.447c-0.073,0-0.144,0.004-0.217,0.005v7.525
					c0.073-0.002,0.143-0.011,0.217-0.011h76.447c4.838,0,8.772,3.935,8.772,8.773v203.024h7.52V330.473
					C225.402,321.489,218.094,314.181,209.11,314.181z"/>
				<g>
					<g>
						<path style="fill:#FFFFFF;" d="M255.35,496.812c0,5.244-4.251,9.495-9.495,9.495h-46.531c-5.244,0-9.495-4.251-9.495-9.495
							V391.881c0-5.244,4.251-9.495,9.495-9.495h46.531c5.244,0,9.495,4.251,9.495,9.495V496.812z"/>
						<g>
							<path style="fill:#E1FEFF;" d="M250.404,492.723c0,5.535-4.486,10.022-10.023,10.022h-35.584
								c-5.535,0-10.023-4.487-10.023-10.022v-74.676c0-5.535,4.488-10.022,10.023-10.022h35.584
								c5.536,0,10.023,4.487,10.023,10.022V492.723z"/>
							<path style="fill:#F3FFFF;" d="M244.199,487.127c0,2.076-1.683,3.758-3.759,3.758l0,0c-2.076,0-3.758-1.682-3.758-3.758
								v-64.641c0-2.076,1.682-3.759,3.758-3.759l0,0c2.076,0,3.759,1.683,3.759,3.759V487.127z"/>
						</g>
					</g>
					<path style="fill:#FFFFFF;" d="M242.434,382.266c0,4.476-3.629,8.104-8.105,8.104h-26.446c-4.477,0-8.105-3.629-8.105-8.104
						l0,0c0-4.476,3.628-8.105,8.105-8.105h26.446C238.806,374.162,242.434,377.79,242.434,382.266L242.434,382.266z"/>
					<rect x="216.84" y="362.218" style="fill:#FFFFFF;" width="8.531" height="23.887"/>
				</g>
			</g>
		</g>
		<g>
			<g>
				<path style="fill:#108D9E;" d="M589.462,674.534h177.732c14.382-8.456,21.35-26.61,16.062-46.438l-92.562-347.104
					c-3.413-12.799-11.513-23.855-21.863-31.406H536.698l-23.344,2.501c-24.948,2.676-39.168,25.653-31.754,51.324l103.26,361.371
					C585.314,668.549,586.918,671.777,589.462,674.534z"/>
			</g>
			<g>
				<path style="fill:#14BAC6;" d="M783.256,616.07l-92.562-336.076c-3.413-12.393-11.513-23.097-21.863-30.409H543.528
					c-20.13,5.897-30.841,26.008-24.312,48.212l98.652,335.437c7.294,24.803,32.433,42.925,56.208,40.557
					c0.06-0.009,0.12-0.009,0.181-0.017l78.27-8.126C776.359,663.174,790.117,640.979,783.256,616.07z"/>
			</g>
		</g>
		<g>
			<path style="fill:#E5804E;" d="M847.942,516.177l32.006,12.447c2.731-0.639,9.187,1.811,13.04,2.34
				c4.969,0.684,8.886-0.028,13.634-0.562c5.042-0.567,17.946,5.377,18.372-1.186C898.813,516.672,876.487,511.15,847.942,516.177z"
				/>
			<path style="fill:#E5804E;" d="M854.462,514.372c-34.469-3.508-78.275-12.63-100.157-21.181
				c-16.3-6.37-26.679-43.479-32.539-66.395l-43.859,18.339c4.443,11.442,9.526,23.28,15.077,34.649
				c13.115,26.853,20.202,46.767,60.794,50.836c11.676,1.171,63.888,1.706,100.684,0.362V514.372z"/>
			<g>
				<path style="fill:#748589;" d="M858.449,797.69c-16.051,0-32.102,0-48.153,0c-0.945,0-1.89,0-2.836,0c-0.128,0-0.257,0-0.385,0
					c-0.587,0-2.939-0.287-0.144,0.148c-0.913-0.142-1.804-0.422-2.684-0.719c-2.278-0.765,1.94,1.076-0.237-0.06
					c-0.648-0.337-1.261-0.749-1.873-1.157c-0.389-0.26-2.354-1.882-0.4-0.179c-0.599-0.522-1.155-1.101-1.71-1.678
					c-0.574-0.594-1.103-1.241-1.632-1.883c-0.23-0.279-1.863-2.609-0.501-0.589c-1.205-1.787-2.221-3.726-3.169-5.693
					c-2.872-5.962-4.649-15.546-4.819-23.39c-0.032-1.487-0.009-2.979-0.009-4.465c0-37.76,0-75.519,0-113.279
					c0-2.706,0.041-5.401,0.218-8.102c-0.003,0.042,0.378-3.807,0.123-1.746c0.141-1.137,0.332-2.265,0.523-3.393
					c0.37-2.182,0.884-4.33,1.451-6.458c0.273-1.027,0.594-2.037,0.916-3.045c0.053-0.167,1.248-3.334,0.412-1.22
					c0.718-1.816,1.572-3.561,2.477-5.267c0.434-0.816,0.913-1.601,1.393-2.385c1.55-2.53-1.251,1.632,0.461-0.672
					c0.997-1.34,2.12-2.55,3.289-3.698c1.897-1.86-1.669,1.287,0.368-0.277c0.594-0.455,1.223-0.846,1.852-1.235
					c0.489-0.301,2.664-1.218,0.212-0.168c0.646-0.277,1.318-0.473,1.988-0.668c0.607-0.176,2.864-0.398,0.107-0.092
					c0.4-0.044,1-0.061,1.402-0.061c0.17,0,0.34,0,0.51,0c1.135,0,2.271,0,3.406,0c15.816,0,31.631,0,47.446,0
					c12.708,0,12.708-22.001,0-22.001c-16.051,0-32.102,0-48.153,0c-3.374,0-6.613,0.118-9.958,0.94
					c-7.889,1.936-14.26,8.354-18.968,15.338c-8.164,12.112-11.182,28.09-11.182,42.987c0,37.482,0,74.964,0,112.446
					c0,9.725,0.515,19.381,3.018,28.782c4.603,17.297,15.957,33.776,33.172,34.924c6.592,0.44,13.315,0.016,19.916,0.016
					c9.53,0,19.059,0,28.588,0c1.189,0,2.378,0,3.567,0C871.157,819.691,871.157,797.69,858.449,797.69L858.449,797.69z"/>
				<g>
					<path style="fill:#A1B1B5;" d="M870.693,655.77c0,5.468-3.972,9.901-8.869,9.901l0,0c-4.898,0-8.869-4.433-8.869-9.901V541.353
						c0-5.469,3.971-9.902,8.869-9.902l0,0c4.897,0,8.869,4.433,8.869,9.902V655.77z"/>
					<g>
						<path style="fill:#14BAC6;" d="M979.537,541.167v1.467c0,8.104-4.756,14.667-10.629,14.667H762.082
							c-5.874,0-10.636-6.563-10.636-14.667v-1.467c0-8.104,4.762-14.667,10.636-14.667h206.826
							C974.781,526.5,979.537,533.063,979.537,541.167z"/>
						<path style="fill:#108D9E;" d="M919.435,541.167v1.467c0,8.104-4.762,14.667-10.635,14.667H762.082
							c-5.874,0-10.636-6.563-10.636-14.667v-1.467c0-8.104,4.762-14.667,10.636-14.667H908.8
							C914.673,526.5,919.435,533.063,919.435,541.167z"/>
					</g>
				</g>
			</g>
			<path style="fill:#E5804E;" d="M871.667,515.487c-9.372-2.98-19.775-0.353-29.652,0.576l0.593,8.957
				c3.587-0.08,8.435,3.663,13.039,4.043c4.576,0.379,10.091,0.027,14.818-0.655c7.566-1.093,5.638-0.287,10.815,3.749
				c3.298,2.571,7.137,3.198,9.989-0.421C887.33,524.599,879.631,518.018,871.667,515.487z"/>
		</g>
		<g>
			<path style="fill:#748589;" d="M1119.285,890.927c0,8.101-5.148,14.667-11.497,14.667H787.531
				c-6.351,0-11.499-6.566-11.499-14.667V790.442c0-8.101,5.148-14.667,11.499-14.667h320.257c6.349,0,11.497,6.567,11.497,14.667
				V890.927z"/>
			<path style="fill:#B0BEC1;" d="M845.426,890.927c0,8.101-4.638,14.667-10.358,14.667H546.556
				c-5.721,0-10.358-6.566-10.358-14.667V790.442c0-8.101,4.638-14.667,10.358-14.667h288.512c5.721,0,10.358,6.567,10.358,14.667
				V890.927z"/>
		</g>
		<g>
			<path style="fill:#108D9E;" d="M1155.229,860.125c1.753,8.101,8.658,45.469-44.393,45.469H941.264
				c-5.732,0-13.231-10.966-14.842-19.067l-79.155-212.677c-1.611-8.101-8.086-26.401-2.474-26.401l187.993-2.934
				c5.612,0,33.99,9.5,35.743,17.601L1155.229,860.125z"/>
			<path style="fill:#14BAC6;" d="M1155.229,852.726c1.753,7.646,7.422,23.534-45.63,23.534H940.028
				c-5.733,0-13.231-10.351-14.841-17.996l-79.154-200.729c-1.612-7.646-149.082-35.021-143.47-35.021l319.094-2.933
				c18.552,0,37.104,8.801,45.637,26.879L1155.229,852.726z"/>
		</g>
		<path style="fill:#108D9E;" d="M961.979,872.489c-13.361-34.104-25.961-68.718-38.825-103.128
			c-14.584-39.004-29.14-78.026-43.679-117.057c-1.254-3.364-2.508-6.728-3.759-10.093c-2.542-6.827-9.227-10.896-14.898-10.896
			H616.978c-9.405,0-17.253,10.008-17.253,22.001c0,9.07,4.491,17.002,10.747,20.33h236.646v1.671h2.865
			c9.039,24.267,18.083,48.53,27.138,72.787c15.85,42.462,31.677,84.938,47.695,127.298c2.436,6.444,4.861,12.897,7.369,19.296
			c4.2,10.722,15.896,13.651,23.604,7.893C964.291,896.239,966.181,883.217,961.979,872.489z"/>
		<g>
			<path style="fill:#FFFFFF;" d="M1075.774,819.765c-5.609-4.399-9.321-11.121-12.762-14.959l-18.541,3.292
				c-2.192,1.81,1.256,26.425,2.518,32.729c15.979,0.876,42.262,1.662,57.155-3.005
				C1102.857,831.168,1081.117,823.958,1075.774,819.765z"/>
			<path style="fill:#0D283A;" d="M975.518,582.771c-17.444-10.119-160.277-33.598-227.581-40.263l24.107,82.547
				c49.236,6.581,154.423-5.667,169.852,13.805c19.132,24.146,83.885,144.015,100.984,177.377
				c15.686-1.512,9.576-1.514,24.319-5.518C1037.015,753.259,1004.86,599.792,975.518,582.771z"/>
		</g>
		<g>
			<path style="fill:#FFFFFF;" d="M735.572,427.682c-11.151,8.023-26.788,10.267-41.758,9.968
				c-4.802-0.097-9.537-0.449-14.027-0.964c-3.567-10.336-6.119-22.202-8.444-33.176c-2.932-13.802-6.645-28.391-6.081-42.208
				c0.218-5.297,0.636-11.628,2.872-16.462c2.273-4.93,7.95-7.639,12.436-10.757l26.301,9.609
				c5.203,10.556,21.33,61.079,26.909,78.45C734.688,424.978,735.315,426.926,735.572,427.682z"/>
			<path style="fill:#E4EDEF;" d="M735.572,427.682c-11.151,8.023-26.788,10.267-41.758,9.968
				c-6.401-21.877-6.247-44.281-8.214-66.727l7.737-24.233c1.573,8.571,6.181,19.273,7.75,28.932
				c1.433,8.824,3.094,18.237,5.641,26.796c3.827,12.888,6.573,27.553,27.051,19.723
				C734.688,424.978,735.315,426.926,735.572,427.682z"/>
		</g>
		<g>
			<path style="fill:#108D9E;" d="M551.001,342.296c17.648-5.72,103.515-10.356,122.312-16.8
				c-0.004-6.421-0.222-14.226-1.141-22.245c-1.89-16.42-6.744-33.752-18.809-42.025l-90.667,9.53l-24.51,2.58
				C549.822,281.079,557.467,324.157,551.001,342.296z"/>
			<path style="fill:#0E777F;" d="M551.001,342.296c17.648-5.72,103.515-10.356,122.312-16.8
				c-0.004-6.421-0.222-14.226-1.141-22.245c-6.488,1.985-13.486,3.149-17.693,4.143c-19.826,4.676-39.882,3.956-59.173-2.582
				c-19.535-6.621-31.018-17.935-32.611-34.056l-24.51,2.58C549.822,281.079,557.467,324.157,551.001,342.296z"/>
		</g>
		<g>
			<path style="fill:#FFFFFF;" d="M998.591,830.636c-5.651-4.722-9.18-11.652-12.584-15.687l-19.672,2.197
				c-2.403,1.678-0.144,26.458,0.833,32.827c16.746,1.815,44.33,4.145,60.242,0.361
				C1026.426,843.614,1003.976,835.135,998.591,830.636z"/>
			<path style="fill:#0F2F48;" d="M922.578,595.693c-37.295-21.43-244.582-68.033-275.562-45.138c0,0-29.636,67.568,50.972,75.866
				c38.011,6.637,158.848-3.327,181.053,13.919c18.558,14.413,68.796,149.665,84.919,183.981
				c16.571-0.587,12.122,0.856,27.839-2.275C959.964,735.478,953.162,613.266,922.578,595.693z"/>
		</g>
		<g>
			<g>
				<path style="fill:#FFFFFF;" d="M791.917,557.827c-37.08,29.186-113.169,53.966-156.157,51.639
					c-14.258-20.947-59.305-159.331-64.062-176.874c-2.987-11.008-8.664-22.521-13.584-33.186c-4.715-10.21-8.753-19.647-9.09-27.12
					c-1.323-29.139,65.06-45.277,81.398-63.113l12.775,10.031c12.156,10.165,55.998,16.917,58.737,24.411
					c8.962,24.533,6.784,57.524,13.122,107.366c0.682,5.362,1.621,10.449,2.784,15.279
					C732.657,528.018,783.435,547.754,791.917,557.827z"/>
				<g>
					<path style="fill:#FFB278;" d="M649.895,356.904c-14.837,1.655-52.258-13.805-53.396-27.582
						c7.85-4.708,3.533-37.82,5.448-48.616c1.458-8.246,5.892-2.286,5.912-5.741l43.929,36.253
						c-3.867,6.379-6.773,9.727-1.632,14.252c2.057,1.809,3.638,3.807,4.771,5.864C659.629,339.843,658.505,355.941,649.895,356.904
						z"/>
					<path style="fill:#E5804E;" d="M654.926,331.333c-22.863-1.433-37.311-8.803-46.843-25.558
						c-1.378-2.422-6.515-15.375-7.821-17.727c1.458-8.246,7.577-9.629,7.596-13.084l43.929,36.253
						c-3.867,6.379-6.773,9.727-1.632,14.252C652.212,327.279,653.793,329.276,654.926,331.333z"/>
				</g>
				<g>
					<path style="fill:#2D1D16;" d="M658.995,194.042l-10.633,12.352c2.202,9.543,7.326,15.274,13.014,22.75
						c5.406,7.11,6.953,16.117,11.197,23.379c4.32-8.028,3.327-21.967,2.064-31.04C673.111,210.534,665.994,201.668,658.995,194.042
						z"/>
					<g>
						<path style="fill:#FFB278;" d="M668.379,264.059c-5.212-10.693,8.076-30.897,16.171-17.447
							c3.004,4.99,2.343,17.316-2.015,22.348c-4.628,5.347-10.728,2.051-13.81,2.741L668.379,264.059z"/>
						<path style="fill:#E5804E;" d="M680.019,249.195l-0.146,0.359c-1.377-0.98-4.464,0.484-5.447,2.466
							c-1.224,2.471-0.188,3.355,1.05,4.904c1.317,1.646,5.938,8.711-0.428,6.964C666.122,261.44,673.904,241.605,680.019,249.195z"
							/>
					</g>
					<path style="fill:#FFB278;" d="M676.712,285.65c0.115-18.728-1.334-29.73-8.708-52.146
						c-4.885-14.848-16.831-35.128-28.115-38.902c-23.446-7.841-37.909,4.76-50.719,25.688
						c11.396,67.581,8.278,57.386,11.092,67.758c8.643,31.853,42.884,35.945,50.915,34.66
						C685.024,317.291,676.65,295.923,676.712,285.65z"/>
					<g>
						<path style="fill:#E5804E;" d="M621.745,265.935l-6.501,3.315c0.703,2.251,2.716,2.505,4.151,3.159
							c2.099,0.95,4.099,0.894,6.35,0.109c3.482-1.214,6.812-4.1,6.895-7.746C629.409,265.015,624.37,265.21,621.745,265.935z"/>
						<g>
							<path style="fill:#FFFFFF;" d="M632.673,265.008l-4.416,1.069l-0.07,0.017l-8.674,2.118l-0.1,0.018l-4.169,1.019
								c-1.412-2.161-0.782-6.057,0.913-9.042c0.589-1.053,1.323-1.998,2.144-2.699c0.701-0.622,1.473-1.058,2.278-1.241
								c2.649-0.627,4.798,0.129,6.579,1.529c0.303,0.244,0.609,0.498,0.894,0.775l0.004,0.011
								C629.95,260.41,631.418,262.909,632.673,265.008z"/>
							<path style="fill:#30241B;" d="M628.052,258.572l0.004,0.011c0.239,2.431,0.415,5.162,0.202,7.493l-0.07,0.017l-8.674,2.118
								l-0.1,0.018c-1.423-2.22-2.427-5.22-3.256-8.022c0.589-1.053,1.323-1.998,2.144-2.699c0.701-0.622,1.473-1.058,2.278-1.241
								c2.649-0.627,4.798,0.129,6.579,1.529C627.462,258.041,627.768,258.294,628.052,258.572z"/>
							<path style="fill:#FFFFFF;" d="M620.302,263.299c0.753,1.295,1.034,2.527,0.629,2.747c-0.404,0.224-1.338-0.647-2.088-1.942
								c-0.755-1.294-1.033-2.522-0.627-2.745C618.614,261.134,619.553,262.004,620.302,263.299z"/>
						</g>
					</g>
					<g>
						<path style="fill:#E5804E;" d="M663.831,254.699l-4.587,2.798c0.794,1.477,2.484,2.539,3.7,3.235
							c1.78,1.022,3.334,1.077,4.977,0.456c2.538-0.965,4.71-3.534,4.242-6.997C669.679,254.244,665.773,254.154,663.831,254.699z"
							/>
						<g>
							<path style="fill:#FFFFFF;" d="M659.247,257.498l0.727-0.175l2.373-0.563l0.074-0.016l6.461-1.538l0.05-0.012l3.287-0.773
								c-1.283-2.07-2.799-4.534-4.54-6.379l-0.001-0.006c-0.27-0.282-0.546-0.537-0.821-0.79c-1.593-1.43-3.384-2.267-5.357-1.818
								c-0.607,0.132-1.146,0.505-1.603,1.053c-0.537,0.628-0.966,1.486-1.28,2.457c-0.52,1.634-0.706,3.583-0.479,5.344
								C658.308,255.499,658.668,256.624,659.247,257.498z"/>
							<path style="fill:#30241B;" d="M658.14,254.281c0.612,1.092,1.237,2.126,1.835,3.042c0.013,0.028,0.033,0.047,0.049,0.073
								l2.324-0.636l0.074-0.016l6.461-1.538l0.05-0.012c-0.175-2.207-0.716-4.821-1.253-7.152l-0.001-0.006
								c-0.27-0.282-0.546-0.537-0.821-0.79c-1.593-1.43-3.384-2.267-5.357-1.818c-0.607,0.132-1.146,0.505-1.603,1.053
								c-0.537,0.628-0.966,1.486-1.28,2.457C658.099,250.572,657.913,252.52,658.14,254.281z"/>
							<path style="fill:#FFFFFF;" d="M661.876,252.703c0.409,1.438,0.481,2.689,0.156,2.797c-0.323,0.108-0.915-0.97-1.323-2.407
								c-0.409-1.433-0.479-2.685-0.156-2.792C660.875,250.192,661.468,251.27,661.876,252.703z"/>
						</g>
					</g>
					<path style="fill:#442D22;" d="M605.653,257.016c-0.11-0.241-0.244-0.474-0.368-0.704c2.899-7.402,12.193-11.857,21.913-12.443
						c2.943,0.994,4.489,5.946,4.642,8.809c-3.72,1.67-17.725,8.663-23.792,11.054C607.397,261.439,606.649,259.181,605.653,257.016
						z"/>
					<path style="fill:#442D22;" d="M653.866,236.762c6.791-3.988,15.442-1.267,19.836-0.202c0.311,2.364,0.568,4.732,0.776,7.101
						c-3.795,1.016-18.374,2.097-21.914,2.54C651.971,243.781,651.386,239.055,653.866,236.762z"/>
					<path style="fill:#E5804E;" d="M657.44,275.288l-1.529-2.138l-1.424-2.198c-0.444-0.756-0.851-1.531-1.306-2.283l-1.196-2.349
						l-1.102-2.409c-0.319-0.827-0.696-1.639-1.023-2.467c-0.304-0.833-0.658-1.661-0.973-2.503
						c-0.318-0.849-0.639-1.691-0.981-2.532c0.098,0.899,0.22,1.795,0.349,2.686c0.177,0.888,0.344,1.787,0.541,2.673
						c0.223,0.881,0.456,1.767,0.712,2.641c0.285,0.867,0.586,1.735,0.89,2.596l1.098,2.534c0.41,0.827,0.853,1.63,1.295,2.443
						c0.49,0.777,0.958,1.574,1.468,2.34c0,0,0.907,1.949,0.587,2.431c-0.146,0.254-0.362,0.44-0.552,0.655l-0.587,0.628
						c-0.188,0.225-0.41,0.402-0.636,0.577l-0.666,0.553c-0.438,0.382-0.964,0.655-1.45,0.996c-1.002,0.627-2.084,1.188-3.15,1.794
						c-0.537,0.313-1.072,0.622-1.592,0.951c-0.519,0.351-1.014,0.726-1.51,1.088c0.583-0.211,1.16-0.419,1.722-0.643
						c0.585-0.187,1.159-0.387,1.735-0.589c0.586-0.186,1.162-0.379,1.743-0.597l0.871-0.334c0.292-0.118,0.589-0.21,0.869-0.365
						c0.558-0.303,1.155-0.536,1.687-0.899c0.53-0.374,1.116-0.676,1.578-1.144l0.721-0.671c0.233-0.23,0.494-0.438,0.686-0.706
						c0.406-0.513,0.805-1.04,1.196-1.57l0.397-0.533L657.44,275.288z"/>
					<path style="fill:#442D22;" d="M662.786,192.759c-0.158,7.856-4.823,17.35-10.713,22.632
						c-12.791,11.443-27.316,11.96-42.976,11.494c5.433,22.367-12.845,14.602-12.565,24.067c0.158,5.398,9.054,25.632,9.193,30.977
						c0.093,3.67-5.476,1.451-4.138,2.729l-10.708-6.251c-2.365-5.852-5.422-5.687-9.33-10.923
						c-4.511-6.064-10.14-16.922-14.244-23.413c-3.024-4.786-3.93-9.407-2.686-13.279c1.134-3.572,4.101-6.514,8.897-8.389
						c0.233-19.045,15.937-37.796,34.596-41.677c17.101-3.563,35.224-2.733,50.364-12.66c0.635,1.545,1.198,3.165,1.688,4.834
						C662.059,179.336,662.906,186.478,662.786,192.759z"/>
					<path style="fill:#2D1D16;" d="M662.786,192.759c-0.158,7.856-4.823,17.35-10.713,22.632
						c-12.791,11.443-27.316,11.96-42.976,11.494c5.433,22.367-12.845,14.602-12.565,24.067c0.158,5.398,9.054,25.632,9.193,30.977
						c0.093,3.67-5.476,1.451-4.138,2.729l-10.708-6.251c-2.365-5.852-5.422-5.687-9.33-10.923
						c-4.511-6.064-10.14-16.922-14.244-23.413c-3.024-4.786-3.93-9.407-2.686-13.279c0.182,0.513,0.395,1.018,0.624,1.513
						c3.288,7.054,7.942,12.021,16.064,11.11c16.197-1.817,14.847-22.468,12.846-34.477c15.61,3.624,36.227-3.684,48.155-14.422
						c6.107-5.494,13.14-13.149,17.856-21.616C662.059,179.336,662.906,186.478,662.786,192.759z"/>
					<g>
						<path style="fill:#FFB278;" d="M600.681,278.591c-3.272-13.127-26.071-15.053-23.173,2.833
							c1.072,6.633,10.1,15.797,17.012,15.877c7.342,0.087,5.399-7.176,8.311-9.386L600.681,278.591z"/>
						<path style="fill:#E5804E;" d="M582.863,279.412l0.363,0.149c0.408-2,3.858-3.608,6.001-2.918
							c2.671,0.855,2.462,2.487,2.554,4.818c0.097,2.481,1.326,12.207,5.146,5.123C602.283,276.661,582.449,267.935,582.863,279.412
							z"/>
					</g>
					<path style="fill:#E5804E;" d="M642.582,299.768c0,0,0.299-0.327,0.852-0.85c0.278-0.259,0.611-0.582,1.011-0.922
						c0.203-0.168,0.396-0.37,0.643-0.54c0.241-0.177,0.503-0.351,0.773-0.54c0.546-0.371,1.148-0.766,1.798-1.172
						c0.654-0.379,1.355-0.727,2.087-1.094c0.73-0.37,1.493-0.734,2.293-1.028c0.793-0.317,1.608-0.615,2.423-0.914
						c0.828-0.249,1.656-0.503,2.478-0.724c0.816-0.243,1.636-0.416,2.431-0.574c0.795-0.159,1.564-0.305,2.298-0.415
						c0.738-0.096,1.438-0.173,2.084-0.234c0.647-0.059,1.239-0.107,1.772-0.112c0.53-0.015,0.995-0.007,1.376-0.004
						c0.763,0.009,1.202,0.047,1.202,0.047s-0.396,0.206-1.094,0.507c-0.349,0.148-0.772,0.334-1.26,0.523
						c-0.486,0.191-1.034,0.407-1.632,0.642c-0.598,0.229-1.246,0.467-1.933,0.703c-0.685,0.246-1.402,0.518-2.151,0.769
						c-0.372,0.133-0.755,0.253-1.141,0.378c-0.383,0.133-0.77,0.268-1.161,0.404c-0.779,0.275-1.579,0.525-2.378,0.78
						c-0.79,0.274-1.577,0.552-2.363,0.799c-0.389,0.134-0.786,0.241-1.166,0.373c-0.378,0.137-0.751,0.273-1.123,0.396
						c-0.736,0.259-1.474,0.476-2.15,0.706c-0.66,0.247-1.295,0.47-1.893,0.67c-0.596,0.198-1.165,0.357-1.65,0.572
						c-0.486,0.201-0.925,0.351-1.283,0.48C643.01,299.65,642.582,299.768,642.582,299.768z"/>
				</g>
			</g>
			<path style="fill:#E4EDEF;" d="M791.917,557.827c-37.08,29.186-113.169,53.966-156.157,51.639
				c-14.258-20.947-59.305-159.331-64.062-176.874c-2.987-11.008-8.664-22.521-13.584-33.186l41.696-23.942
				c4.532,1.836,14.002,28.393,18.757,36.399c10.363,17.446,16.534,49.842,33.191,59.27c22.852,12.941,44.069,7.464,66.083-4.872
				C732.657,528.018,783.435,547.754,791.917,557.827z"/>
		</g>
		<g>
			<g>
				<g>
					<path style="fill:#FFB278;" d="M783.254,530.319c-32.551,3.456-117.61,3.823-133.317,2.49
						c-32.681-2.78-44.844-14.966-54.955-32.433c-3.165-5.453-6.123-11.421-9.442-17.781c-2.685-5.151-5.269-10.396-7.734-15.659
						c-10.455-22.321-18.759-44.945-23.566-61.623l53.373-4.309c3.628,16.104,7.083,36.658,13.057,54.63
						c4.055,12.203,9.276,23.222,16.501,30.844c3.805,4.013,8.161,7.077,13.194,8.891c16.317,5.868,44.286,9.246,72.156,11.314
						c10.674,0.794,21.331,1.399,31.312,1.879c10.337,0.498,19.944,0.86,28.106,1.168L783.254,530.319z"/>
					<path style="fill:#FFFFFF;" d="M593.172,356.49l-29.891-7.213c-4.732,3.637-10.81,6.976-12.948,12.244
						c-2.098,5.169-2.074,11.69-1.901,17.128c0.451,14.194,1.58,26.745,5.312,40.738c3.556,13.335,5.912,28.012,10.668,38.228
						c20.669,0.318,42.214-2.626,57.71-14.933C619.682,437.353,600.826,368.449,593.172,356.49z"/>
					<g>
						<path style="fill:#FFB278;" d="M815.557,544.746c-3.085,1.306-7.029,3.832-10.543,4.534c-0.846,0.171-1.669,0.235-2.449,0.148
							c-3.091-0.341-5.591-1.337-7.682-2.899c-1.428-0.63-2.75-1.442-4.182-2.103c-1.747-0.803-3.743-1.225-5.443-2.066
							c-1.863-0.922-1.957-2.034-3.233-3.588c-1.169-1.423-4.363-4.273-5.479-5.548c-2.124-2.43-4.076-2.561-6.895-4.384
							c-1.327-0.857,1.591-17.737,3.005-18.642l9.4-1.33c2.337-2.006,6.804-5.056,10.064-6.622
							c3.717-1.785,7.622-0.287,11.515-0.746c4.234-0.499,6.797-0.214,10.929,1.288c1.836,0.669,15.646,0.559,5.952,6.281
							c-2.571,1.517-4.492,1.211-6.215,1.299c-1.557,0.082-3.277,0.127-4.721,0.835c-4.105,2.021-5.707,3.964-2.793,8.145
							c1.23,1.76,2.234,3.597,4.478,3.473c1.916-0.107,3.927-1.888,5.356-3.119c2.039-1.759,7.714-6.429,7.653-0.825
							c-0.003,0.137-0.008,0.281-0.016,0.431c-0.059,1.029-0.308,2.174-0.655,3.341
							C826.087,531.036,824.893,540.794,815.557,544.746z"/>
						<path style="fill:#E5804E;" d="M818.908,528.448c-2.486,2.188-5.186,4.122-8.252,5.41c-2.585,1.086-5.282,1.711-8.049,1.879
							c-1.398,2.598,0.875,4.186,2.832,5.634c-2.838,2.145-0.316,3.054-0.032,5.219c0.119,0.901-0.169,1.792-0.394,2.69
							c3.514-0.702,7.458-3.228,10.543-4.534c9.036-3.825,10.444-13.087,8.272-21.28
							C822.281,525.215,820.665,526.901,818.908,528.448z"/>
					</g>
					<path style="fill:#FFFEEB;" d="M826.497,503.121c-9.225-1.098-38.877,0.682-26.867,17.645l-0.06,0.887
						C810.219,533.813,831.603,515.421,826.497,503.121z"/>
				</g>
				<g>
					<path style="fill:#2D2A29;" d="M637.171,486.477c-5.157,4.19-11.445,7.349-18.078,9.59c-8.019,2.715-16.531,4.084-24.111,4.309
						c-3.165-5.453-6.123-11.421-9.442-17.781c-2.685-5.151-5.269-10.396-7.734-15.659c7.041-0.818,14.711-1.393,22.606-3.207
						c6.662-1.523,13.501-3.923,20.258-8.096C624.724,467.836,629.945,478.855,637.171,486.477z"/>
					<path style="fill:#494342;" d="M637.171,486.477c-5.157,4.19-11.445,7.349-18.078,9.59c-0.527-0.51-1.085-1.114-1.701-1.802
						c-7.201-8.12-14.183-19.577-16.981-30.536c6.662-1.523,13.501-3.923,20.258-8.096
						C624.724,467.836,629.945,478.855,637.171,486.477z"/>
				</g>
			</g>
			<path style="fill:#FFFFFF;" d="M753.832,508.561c-4.136,4.451-6.543,9.128-14.284,9.507c-8.345,0.409-16.021-1.802-23.868-2.798
				c0.397-2.685,3.965-6.17,6.84-8.588C733.195,507.476,743.851,508.081,753.832,508.561z"/>
		</g>
		<g>
			<path style="fill:#39696D;" d="M799.093,655.772c0,6.683-4.854,12.102-10.841,12.102h-76.868
				c-5.987,0-10.841-5.419-10.841-12.102l0,0c0-6.684,4.853-12.102,10.841-12.102h76.868
				C794.239,643.669,799.093,649.088,799.093,655.772L799.093,655.772z"/>
			<g>
				<g>
					<path style="fill:#B0BEC1;" d="M732.082,655.95c0,5.468-3.971,9.901-8.869,9.901l0,0c-4.899,0-8.87-4.433-8.87-9.901V541.532
						c0-5.469,3.971-9.901,8.87-9.901l0,0c4.898,0,8.869,4.433,8.869,9.901V655.95z"/>
					<g>
						<path style="fill:#14BAC6;" d="M840.926,541.347v1.467c0,8.104-4.756,14.667-10.629,14.667H623.471
							c-5.874,0-10.636-6.564-10.636-14.667v-1.467c0-8.103,4.762-14.667,10.636-14.667h206.826
							C836.17,526.68,840.926,533.244,840.926,541.347z"/>
						<path style="fill:#108D9E;" d="M780.824,541.347v1.467c0,8.104-4.763,14.667-10.636,14.667H623.471
							c-5.874,0-10.636-6.564-10.636-14.667v-1.467c0-8.103,4.762-14.667,10.636-14.667h146.717
							C776.061,526.68,780.824,533.244,780.824,541.347z"/>
					</g>
				</g>
				<path style="fill:#B0BEC1;" d="M717.196,797.87c-16.299,0-32.598,0-48.896,0c-2.466,0-4.933,0-7.399,0
					c-0.33,0-0.657-0.008-0.989-0.014c-0.551-0.011-2.977-0.422-0.312,0.049c-0.725-0.128-1.436-0.339-2.143-0.549
					c-0.711-0.211-1.401-0.499-2.09-0.787c2.363,0.988,0.105-0.037-0.338-0.296c-0.669-0.392-1.306-0.852-1.941-1.308
					c-0.427-0.317-0.845-0.646-1.255-0.989c0.971,0.836,1.03,0.859,0.178,0.07c-1.226-1.176-2.324-2.508-3.379-3.871
					c-1.793-2.318,1.122,1.787-0.505-0.746c-0.504-0.783-0.96-1.603-1.416-2.42c-0.947-1.694-1.749-3.484-2.505-5.291
					c0.873,2.086-0.354-1.024-0.415-1.203c-0.449-1.328-0.821-2.689-1.182-4.049c-1.636-6.163-1.851-9.007-1.851-15.604
					c0-37.343,0-74.686,0-112.029c0-1.863,0-3.727,0-5.59c0-7.083,0.434-10.456,2.413-17.446c0.284-1.006,0.618-1.992,0.951-2.979
					c1.071-3.164-0.792,1.867,0.469-1.145c0.751-1.796,1.641-3.514,2.579-5.194c0.454-0.812,0.953-1.591,1.451-2.368
					c-1.283,1.999,0.342-0.404,0.548-0.67c0.53-0.685,1.103-1.327,1.675-1.968c0.326-0.364,2.949-2.825,0.987-1.138
					c1.204-1.035,2.516-1.899,3.858-2.686c2.224-1.304-1.968,0.779,0.366-0.196c0.688-0.287,1.398-0.498,2.107-0.708
					c0.519-0.154,2.959-0.542,0.271-0.174c0.736-0.102,1.48-0.116,2.22-0.13c0.158-0.003,0.316,0,0.474,0
					c17.128,0,34.255,0,51.382,0c1.562,0,3.122,0,4.684,0c12.708,0,12.708-22.001,0-22.001c-16.299,0-32.598,0-48.896,0
					c-8.923,0-17.272,0.237-25.159,5.91c-14.881,10.703-21.324,31.227-22.053,50.148c-0.572,14.839-0.037,29.823-0.037,44.67
					c0,21.861,0,43.724,0,65.584c0,5.506-0.157,11.061,0.225,16.555c1.292,18.581,8.667,38.427,23.807,47.963
					c7.802,4.915,16.091,4.601,24.654,4.601c10.211,0,20.421,0,30.632,0c5.61,0,11.219,0,16.828,0
					C729.904,819.871,729.904,797.87,717.196,797.87L717.196,797.87z"/>
			</g>
		</g>
		<path style="fill:#2D2A29;" d="M590.185,484.158c6.771,11.516,13.45,23.244,18.602,35.593c2.487,5.962,5.183,12.684,4.926,19.272
			c-0.132,3.359-1.395,5.408-4.394,6.735c-0.754,0.333-3.399,0.886-4.397,0.995c-2.021,0.219-4.061,0.243-6.091,0.235
			c-8.301-0.036-17.917-1.32-25.377,3.18c-10.915,6.582-7.548,21.39-6.675,31.796c0.95,11.336,1.348,22.745,0.858,34.114
			c-0.447,10.384-1.297,22.028-6.356,31.343c-3.13,5.762-10.703,10.795-16.917,6.559c-6.255-4.263-8.685-14.031-10.456-20.862
			c-4.651-17.941-6.232-37.318-5.127-55.764c0.841-14.051,2.603-28.37,0.309-42.369c-1.831-11.174-7.933-20.792-19.546-23.204
			c-13.106-2.722-27.927,2.794-38.647,10.118c-2.351,1.606-0.131,5.46,2.243,3.838c9.374-6.404,21.139-10.847,32.623-10.026
			c5.353,0.383,10.28,2.614,13.74,6.748c3.784,4.521,5.102,11.24,5.743,16.92c1.61,14.273-0.522,28.81-1.185,43.081
			c-0.42,9.048,0.301,17.989,1.296,26.973c1.008,9.099,2.404,18.207,4.848,27.041c2.047,7.402,4.99,16.03,11.317,20.896
			c6.177,4.752,14.197,2.447,19.589-2.421c6.89-6.222,8.74-17.393,9.878-26.087c1.547-11.814,1.526-23.802,0.97-35.685
			c-0.402-8.587-1.938-17.225-1.968-25.808c-0.017-4.581,0.957-9.233,4.172-12.222c2.459-2.287,6.5-3.262,9.963-3.604
			c8.308-0.82,17.082,1.144,25.223-1.126c10.386-2.896,9.537-13.964,7.123-22.385c-4.677-16.321-13.913-31.604-22.447-46.117
			C592.572,479.446,588.729,481.681,590.185,484.158L590.185,484.158z"/>
		<g>
			<g>
				<path style="fill:#748589;" d="M622.759,585.702c0,6.23-5.05,11.28-11.28,11.28H466.715c-6.23,0-11.28-5.05-11.28-11.28l0,0
					c0-6.23,5.05-11.28,11.28-11.28h144.763C617.709,574.422,622.759,579.472,622.759,585.702L622.759,585.702z"/>
				<path style="fill:#B0BEC1;" d="M650.96,574.421c0,6.23-5.05,11.28-11.28,11.28H494.916c-6.229,0-11.28-5.051-11.28-11.28l0,0
					c0-6.23,5.05-11.28,11.28-11.28h144.764C645.909,563.141,650.96,568.192,650.96,574.421L650.96,574.421z"/>
			</g>
			<g>
				<g>
					<rect x="211.151" y="521.36" style="fill:#545E60;" width="352.474" height="18.33"/>
					<rect x="268.459" y="501.385" style="fill:#545E60;" width="47.001" height="24.441"/>
				</g>
				<g>
					<path style="fill:#B0BEC1;" d="M484.663,894.154c0,6.318-5.611,11.44-12.532,11.44H211.429c-6.921,0-12.532-5.122-12.532-11.44
						V542.906c0-6.318,5.611-11.44,12.532-11.44h260.702c6.921,0,12.532,5.122,12.532,11.44V894.154z"/>
					<path style="fill:#D3DEE2;" d="M597.467,894.154c0,6.318-4.873,11.44-10.884,11.44H360.184c-6.011,0-10.884-5.122-10.884-11.44
						V542.906c0-6.318,4.873-11.44,10.884-11.44h226.398c6.011,0,10.884,5.122,10.884,11.44V894.154z"/>
				</g>
				<g>
					<g>
						<path style="fill:#FFFFFF;" d="M578.092,667.646c0,5.778-4.683,10.46-10.461,10.46h-51.264
							c-5.778,0-10.461-4.683-10.461-10.46V552.043c0-5.778,4.683-10.461,10.461-10.461h51.264c5.778,0,10.461,4.683,10.461,10.461
							V667.646z"/>
						<g>
							<path style="fill:#FF2C22;" d="M572.644,663.141c0,6.098-4.943,11.042-11.042,11.042h-39.203
								c-6.098,0-11.042-4.943-11.042-11.042V580.87c0-6.098,4.944-11.041,11.042-11.041h39.203c6.099,0,11.042,4.943,11.042,11.041
								V663.141z"/>
							<path style="fill:#FC5454;" d="M565.807,656.976c0,2.287-1.854,4.14-4.141,4.14l0,0c-2.287,0-4.14-1.853-4.14-4.14v-71.215
								c0-2.287,1.854-4.141,4.14-4.141l0,0c2.287,0,4.141,1.854,4.141,4.141V656.976z"/>
						</g>
					</g>
					<path style="fill:#FFFFFF;" d="M565.496,539.68c0,4.931-3.997,8.929-8.929,8.929h-29.136c-4.932,0-8.929-3.998-8.929-8.929l0,0
						c0-4.932,3.997-8.929,8.929-8.929h29.136C561.499,530.751,565.496,534.748,565.496,539.68L565.496,539.68z"/>
					<rect x="537.3" y="517.593" style="fill:#FFFFFF;" width="9.398" height="26.316"/>
				</g>
				<g>
					<g>
						<path style="fill:#FFFFFF;" d="M477.833,667.646c0,5.778-4.684,10.46-10.461,10.46h-51.264c-5.777,0-10.46-4.683-10.46-10.46
							V552.043c0-5.778,4.683-10.461,10.46-10.461h51.264c5.777,0,10.461,4.683,10.461,10.461V667.646z"/>
						<g>
							<path style="fill:#FF2C22;" d="M472.384,663.141c0,6.098-4.943,11.042-11.042,11.042h-39.203
								c-6.098,0-11.042-4.943-11.042-11.042V580.87c0-6.098,4.944-11.041,11.042-11.041h39.203c6.099,0,11.042,4.943,11.042,11.041
								V663.141z"/>
							<path style="fill:#FC5454;" d="M465.547,656.976c0,2.287-1.854,4.14-4.141,4.14l0,0c-2.287,0-4.14-1.853-4.14-4.14v-71.215
								c0-2.287,1.853-4.141,4.14-4.141l0,0c2.287,0,4.141,1.854,4.141,4.141V656.976z"/>
						</g>
					</g>
					<path style="fill:#FFFFFF;" d="M465.237,539.68c0,4.931-3.997,8.929-8.929,8.929h-29.135c-4.932,0-8.929-3.998-8.929-8.929l0,0
						c0-4.932,3.997-8.929,8.929-8.929h29.135C461.24,530.751,465.237,534.748,465.237,539.68L465.237,539.68z"/>
					<rect x="437.041" y="517.593" style="fill:#FFFFFF;" width="9.399" height="26.316"/>
				</g>
				<g>
					<rect x="229.162" y="572.347" style="fill:#545E60;" width="90.233" height="26.318"/>
					<rect x="247.021" y="578.927" style="fill:#232728;" width="72.374" height="19.739"/>
				</g>
				<g>
					<path style="fill:#545E60;" d="M289.318,696.418c0,4.154-3.365,7.52-7.52,7.52h-43.863c-4.155,0-7.52-3.365-7.52-7.52
						c0-2.08,0.84-3.96,2.199-5.32c1.36-1.359,3.24-2.199,5.321-2.199h43.863C285.953,688.898,289.318,692.263,289.318,696.418z"/>
					<path style="fill:#6E7F82;" d="M274.279,696.418c0,4.154-3.365,7.52-7.519,7.52h-28.824c-4.155,0-7.52-3.365-7.52-7.52
						c0-2.08,0.84-3.96,2.199-5.32c1.36-1.359,3.24-2.199,5.321-2.199h28.824C270.914,688.898,274.279,692.263,274.279,696.418z"/>
				</g>
				<path style="fill:#545E60;" d="M249.214,693.448c-11.85-0.453-15.444,15.948-17.156,24.715
					c-3.657,18.735-3.902,38.194-4.204,57.216c-0.326,20.499-0.002,41.01-0.629,61.504c-0.231,7.575-0.524,15.213-1.591,22.725
					c-0.372,2.623-0.856,5.246-1.628,7.783c-0.803,2.639-1.67,3.756-3.565,5.805c-4.313,4.664-10.308,7.84-16.763,6.495
					c-5.455-1.137-9.979-5.12-13.019-9.633c-2.933-4.354-4.898-9.963-4.126-15.262c0.652-4.474,7.423-10.462,12.343-10.913v-4.595
					c-8.527,0.437-17.059,9.939-17.183,17.708c-0.137,8.529,4.686,17.152,11.196,22.429c7.219,5.852,16.57,6.933,24.666,2.182
					c6.043-3.546,10.069-8.743,11.644-15.441c1.538-6.541,1.964-13.382,2.34-20.07c0.515-9.168,0.633-18.358,0.716-27.538
					c0.19-21.122-0.027-42.254,0.851-63.364c0.568-13.658,1.319-27.616,4.619-40.934c1.067-4.307,2.446-8.676,4.975-12.369
					c1.702-2.485,3.862-3.843,6.515-3.742C252.246,698.263,252.234,693.563,249.214,693.448z"/>
				<g>
					<g>
						<path style="fill:#545E60;" d="M560.769,732.462v69.898c0,6.658-5.393,12.05-12.051,12.05H430.012
							c-6.658,0-12.05-5.392-12.05-12.05v-69.898c0-6.658,5.392-12.05,12.05-12.05h118.707
							C555.377,720.412,560.769,725.804,560.769,732.462z"/>
						<path style="fill:#232728;" d="M539.079,746.922v67.488H430.012c-6.658,0-12.05-5.392-12.05-12.05v-67.489h109.067
							C533.68,734.872,539.079,740.265,539.079,746.922z"/>
					</g>
					<g>
						<path style="fill:#545E60;" d="M551.407,748.61c0,2.596-2.105,4.7-4.7,4.7H441.424c-2.596,0-4.7-2.104-4.7-4.7l0,0
							c0-2.596,2.104-4.7,4.7-4.7h105.282C549.302,743.911,551.407,746.015,551.407,748.61L551.407,748.61z"/>
						<path style="fill:#545E60;" d="M551.407,767.411c0,2.596-2.105,4.7-4.7,4.7H441.424c-2.596,0-4.7-2.104-4.7-4.7l0,0
							c0-2.596,2.104-4.7,4.7-4.7h105.282C549.302,762.711,551.407,764.815,551.407,767.411L551.407,767.411z"/>
						<path style="fill:#545E60;" d="M551.407,786.211c0,2.595-2.105,4.7-4.7,4.7H441.424c-2.596,0-4.7-2.105-4.7-4.7l0,0
							c0-2.596,2.104-4.7,4.7-4.7h105.282C549.302,781.511,551.407,783.615,551.407,786.211L551.407,786.211z"/>
					</g>
				</g>
				<g>
					<g>
						<path style="fill:#FFFFFF;" d="M728.658,513.671c-4.018,0.202-8.025,0.877-11.818,2.258
							c-6.348,2.311-11.516,6.307-15.713,11.226c-4.824,5.654-8.375,12.536-10.982,19.506c-6.312,16.874-8.79,35.07-10.681,52.899
							c-0.569,5.399-1.067,10.799-1.529,16.205c-0.96,11.267-1.772,22.54-2.779,33.796c-0.267,3.052-0.552,6.105-0.86,9.151
							c-1.701,16.868-3.651,34.294-9.513,50.309c-4.528,12.37-12.18,24.431-25.599,28.23c-13.371,3.781-22.611-5.358-28.521-16.086
							c-1.511-2.744-2.804-5.589-3.894-8.351c-9.347-23.72-11.931-50.291-13.591-75.522c-0.966-14.717-1.387-29.463-1.345-44.21
							c0.03-10.277-0.029-20.519-1.304-30.66c-0.522-4.173-1.251-8.322-2.258-12.453c-3.722-15.227-11.653-34.11-27.478-40.334
							c-7.753-3.04-18.593-1.505-18.315,8.849c0.036,1.434-2.187,1.429-2.228,0c-0.083-3.206,0.824-6.484,3.088-8.837
							c7.101-7.397,19.097-2.88,25.931,2.418c14.871,11.528,21.023,31.656,23.424,49.597c0.042,0.308,0.083,0.61,0.119,0.913
							c1.891,14.794,1.084,29.7,1.357,44.571c0.267,14.705,0.954,29.416,2.354,44.056c1.292,13.543,3.082,27.087,6.158,40.351
							c2.181,9.394,4.848,19.014,9.365,27.614c0.456,0.865,0.931,1.725,1.422,2.566c3.669,6.277,8.967,12.755,16.566,14.012
							c7.089,1.168,14.734-2.27,19.962-6.923c10.497-9.353,14.64-24.372,17.402-37.643c2.886-13.857,4.534-27.887,5.773-41.975
							c1.008-11.327,1.749-22.695,2.667-34.039c1.025-12.749,2.282-25.463,4.38-38.069c2.863-17.207,7.871-37.749,19.346-51.233
							c6.982-8.191,16.358-13.78,29.096-14.421C730.093,511.371,730.087,513.594,728.658,513.671z"/>
						<path style="fill:#FF2C22;" d="M701.127,527.155c-4.824,5.654-8.375,12.536-10.982,19.506
							c-6.312,16.874-8.79,35.07-10.681,52.899c-0.569,5.399-1.067,10.799-1.529,16.205l-2.098-0.599
							c1.025-12.749,2.282-25.463,4.38-38.069c2.863-17.207,7.871-37.749,19.346-51.233L701.127,527.155z"/>
						<path style="fill:#FF2C22;" d="M675.155,649.56c-0.267,3.052-0.552,6.105-0.86,9.151c-1.701,16.868-3.651,34.294-9.513,50.309
							c-4.528,12.37-12.18,24.431-25.599,28.23c-13.371,3.781-22.611-5.358-28.521-16.086c0.463-0.664,0.919-1.328,1.381-1.998
							c0.456,0.865,0.931,1.725,1.422,2.566c3.669,6.277,8.967,12.755,16.566,14.012c7.089,1.168,14.734-2.27,19.962-6.923
							c10.497-9.353,14.64-24.372,17.402-37.643c2.886-13.857,4.534-27.887,5.773-41.975
							C673.815,649.329,674.479,649.448,675.155,649.56z"/>
					</g>
					<path style="fill:#FF2C22;" d="M573.343,518.589c0.475-0.489,0.952-0.975,1.43-1.461c-1.689-1.823-3.516-3.522-5.504-5.063
						c-6.834-5.299-18.83-9.815-25.931-2.418c-2.264,2.353-3.171,5.631-3.088,8.837c0.042,1.429,2.264,1.434,2.228,0
						c-0.278-10.355,10.562-11.89,18.315-8.849C565.699,511.564,569.845,514.712,573.343,518.589z"/>
					<path style="fill:#FF2C22;" d="M582.359,532.693c2.644,5.72,4.557,11.739,5.911,17.276c1.008,4.131,1.737,8.28,2.258,12.453
						c0.717-0.243,1.446-0.492,2.163-0.759c-1.365-10.197-3.944-21.098-8.644-30.728
						C583.484,531.519,582.92,532.105,582.359,532.693z"/>
				</g>
			</g>
		</g>
	</g>
</g>
</svg>
